#!OML:ASF H:\MichaelJackson\Top Level 1\Subject 1\Session 1\male.ASF
:FULLY-SPECIFIED
:DEGREES
621
root -7.49213 16.735 19.7928 -182.159 -36.5701 -171.431
lowerback 0.44658 4.52774 2.8967
upperback 1.91187 6.01052 -1.55026
thorax 2.18248 3.05628 -3.09614
lowerneck -9.58822 -2.92153 2.92707
upperneck 18.8624 -6.21184 5.45241
head 7.49027 -2.50733 0.685639
rclavicle 3.85642e-014 2.22639e-014
rhumerus -53.4414 79.1081 -82.9448
rradius 60.794
rwrist 15.8513
rhand 13.2159 -8.63827
rfingers 7.12502
rthumb 38.1697 -394.391
lclavicle 3.85642e-014 2.22639e-014
lhumerus -40.5205 -23.3483 97.3289
lradius 66.3984
lwrist 7.85592
lhand -13.9031 10.5644
lfingers 7.12502
lthumb 12.2226 40.1873
rfemur -16.5612 -0.210173 28.8478
rtibia 44.6794
rfoot -19.8523 0.574201
rtoes 24.5379
lfemur -40.4098 -2.57653 -6.43809
ltibia 50.4747
lfoot -4.87151 -12.8282
ltoes 9.14826
622
root -7.36157 16.7301 19.894 -182.107 -36.6952 -171.397
lowerback 0.546645 4.58301 2.95332
upperback 1.97805 6.08427 -1.63649
thorax 2.21636 3.09543 -3.21856
lowerneck -9.66083 -2.73386 3.19704
upperneck 18.7075 -5.95241 5.33909
head 7.43809 -2.37314 0.629246
rclavicle 8.94531e-014 -2.06736e-014
rhumerus -44.3556 80.7247 -73.6198
rradius 60.5666
rwrist 15.95
rhand 13.9123 -8.31659
rfingers 7.12502
rthumb 38.8268 -393.886
lclavicle 8.94531e-014 -2.06736e-014
lhumerus -41.1731 -22.3764 97.0542
lradius 66.6345
lwrist 7.61317
lhand -15.1402 10.3446
lfingers 7.12502
lthumb 11.0296 40.0349
rfemur -17.1065 -0.38401 29.1967
rtibia 44.4935
rfoot -19.868 -0.245693
rtoes 25.5604
lfemur -40.9257 -2.27116 -6.6026
ltibia 53.0255
lfoot -4.90441 -12.9508
ltoes 8.66922
623
root -7.23276 16.7259 19.9951 -182.018 -36.7842 -171.407
lowerback 0.647071 4.6387 3.00426
upperback 2.02595 6.15921 -1.74926
thorax 2.23408 3.13501 -3.36608
lowerneck -9.71229 -2.54532 3.48556
upperneck 18.5544 -5.69391 5.21311
head 7.38307 -2.24032 0.565852
rclavicle -1.4233e-013 2.54444e-014
rhumerus -32.1051 81.9218 -61.1657
rradius 60.3456
rwrist 16.0665
rhand 14.5536 -7.99344
rfingers 7.12502
rthumb 39.4313 -393.389
lclavicle -1.4233e-013 2.54444e-014
lhumerus -41.8418 -21.3779 96.7463
lradius 66.8774
lwrist 7.39321
lhand -16.5143 10.0857
lfingers 7.12502
lthumb 9.704 39.8421
rfemur -17.6161 -0.466967 29.4807
rtibia 44.2358
rfoot -19.897 -0.984091
rtoes 26.3516
lfemur -41.3785 -1.98892 -6.75653
ltibia 55.5449
lfoot -4.8115 -12.9408
ltoes 8.02611
624
root -7.10565 16.7224 20.0961 -181.897 -36.8542 -171.434
lowerback 0.740604 4.69615 3.06933
upperback 2.04938 6.23707 -1.88325
thorax 2.23515 3.17621 -3.54385
lowerneck -9.74273 -2.36223 3.80254
upperneck 18.4127 -5.44583 5.06517
head 7.32803 -2.11331 0.489846
rclavicle -6.20208e-014 -6.36111e-015
rhumerus -17.2083 82.5433 -46.0963
rradius 60.139
rwrist 16.1996
rhand 15.1187 -7.72496
rfingers 7.12502
rthumb 39.9634 -392.962
lclavicle -6.20208e-014 -6.36111e-015
lhumerus -42.5272 -20.3788 96.4113
lradius 67.1159
lwrist 7.23921
lhand -17.9322 9.78084
lfingers 7.12502
lthumb 8.33578 39.5964
rfemur -18.1027 -0.458009 29.7122
rtibia 43.9059
rfoot -19.9214 -1.6293
rtoes 26.8298
lfemur -41.7781 -1.74763 -6.87563
ltibia 58.0038
lfoot -4.57002 -12.8938
ltoes 7.3586
625
root -6.98022 16.72 20.197 -181.749 -36.9144 -171.478
lowerback 0.816482 4.74467 3.1262
upperback 2.06182 6.30298 -2.01498
thorax 2.23309 3.2112 -3.71435
lowerneck -9.77754 -2.18198 4.09903
upperneck 18.2945 -5.19895 4.9033
head 7.28271 -1.98885 0.412257
rclavicle -9.20373e-014 3.02153e-014
rhumerus -1.40387 82.5269 -30.1193
rradius 59.9724
rwrist 16.3259
rhand 15.6313 -7.49692
rfingers 7.12502
rthumb 40.4456 -392.587
lclavicle -9.20373e-014 3.02153e-014
lhumerus -43.2075 -19.3524 96.0632
lradius 67.3451
lwrist 7.18394
lhand -19.301 9.46865
lfingers 7.12502
lthumb 7.01458 39.3324
rfemur -18.5714 -0.350728 29.8833
rtibia 43.5125
rfoot -19.9237 -2.17081
rtoes 26.9431
lfemur -42.1182 -1.56884 -6.95761
ltibia 60.3778
lfoot -4.18078 -12.8836
ltoes 6.74797
626
root -6.85647 16.7185 20.2978 -181.565 -36.9818 -171.541
lowerback 0.873173 4.78294 3.18223
upperback 2.05863 6.35527 -2.14944
thorax 2.22501 3.23925 -3.88686
lowerneck -9.81589 -2.00742 4.38142
upperneck 18.2003 -4.95873 4.72914
head 7.24696 -1.86901 0.332103
rclavicle -1.02374e-013 1.90833e-014
rhumerus 12.5102 81.9056 -16.0371
rradius 59.8434
rwrist 16.4436
rhand 16.1025 -7.29078
rfingers 7.12502
rthumb 40.8884 -392.243
lclavicle -1.02374e-013 1.90833e-014
lhumerus -43.8902 -18.3283 95.7013
lradius 67.5674
lwrist 7.24598
lhand -20.5902 9.20619
lfingers 7.12502
lthumb 5.76998 39.1076
rfemur -19.0471 -0.140244 29.9871
rtibia 43.0794
rfoot -19.8786 -2.60653
rtoes 26.7961
lfemur -42.4049 -1.47043 -7.00472
ltibia 62.6492
lfoot -3.63184 -12.9674
ltoes 6.2475
